<svg height="512" viewBox="0 0 512 512" width="512" xmlns="http://www.w3.org/2000/svg" xmlns:xlink="http://www.w3.org/1999/xlink"><linearGradient id="New_Gradient_Swatch_4" gradientTransform="matrix(.966 .258 -.258 .966 73.663 -57.504)" gradientUnits="userSpaceOnUse" x1="103.243" x2="394.227" y1="414.421" y2="123.437"><stop offset=".011" stop-color="#cacad5"/><stop offset="1" stop-color="#ededf1"/></linearGradient><linearGradient id="New_Gradient_Swatch_16" gradientTransform="matrix(.966 .258 -.258 .966 73.663 -57.504)" gradientUnits="userSpaceOnUse" x1="14" x2="77.991" y1="325.178" y2="261.187"><stop offset=".004" stop-color="#dd888a"/><stop offset="1" stop-color="#ecbbbc"/></linearGradient><linearGradient id="New_Gradient_Swatch_16-2" x1="218.744" x2="285.36" xlink:href="#New_Gradient_Swatch_16" y1="274.871" y2="208.254"/><linearGradient id="New_Gradient_Swatch_12" gradientTransform="matrix(.966 .258 -.258 .966 73.663 -57.504)" gradientUnits="userSpaceOnUse" x1="449.357" x2="482.703" y1="245.295" y2="211.948"><stop offset=".011" stop-color="#80d1cb"/><stop offset="1" stop-color="#bfe8e5"/></linearGradient><g id="_10-plane" data-name="10-plane"><g id="gradient"><path d="m506.635 315.529c-.345-1.82-3.771-18.25-17.337-34.491-12.649-15.144-36.708-32.8-79.472-30.936-36.846 1.609-217.56 2.207-306.643 2.086l-26.091-35.173-18.424-33.2a12 12 0 0 0 -12.468-5.215l-17.522 3.6a12 12 0 0 0 -9.338 14.171l13.834 67.319-7.523 28.18a12 12 0 0 0 8.5 14.689l92.749 24.762a11.942 11.942 0 0 0 3.159.406l364.851-1.957a12 12 0 0 0 11.724-14.241z" fill="url(#New_Gradient_Swatch_4)"/><path d="m58.668 183.811a12 12 0 0 0 -12.468-5.211l-17.522 3.6a12 12 0 0 0 -9.338 14.171l13.834 67.319-7.523 28.18a12 12 0 0 0 8.5 14.689l69.034-54.371z" fill="url(#New_Gradient_Swatch_16)"/><path d="m361.133 330.488-139.301-203.288a12 12 0 0 0 -11.747-4.2l-17.523 3.6a12 12 0 0 0 -9.017 15.4l69.082 189.07z" fill="url(#New_Gradient_Swatch_16-2)"/><path d="m14.577 267.794a12 12 0 0 1 -.2-24l46.423-.794h.209a12 12 0 0 1 .2 24l-46.419.794c-.073 0-.144 0-.213 0z" fill="#dd888a"/><path d="m481.2 272.65-44.371 1.016.9 7.951a12 12 0 0 0 12.144 10.647l46.84-.861a85.639 85.639 0 0 0 -7.418-10.365 81.639 81.639 0 0 0 -8.095-8.388z" fill="url(#New_Gradient_Swatch_12)"/></g></g></svg>